<svg xmlns="http://www.w3.org/2000/svg" viewBox="0 0 1920.57 744.45"><defs><style>.cls-1{fill:#fff;}.cls-2{fill:#333;}.cls-3{fill:#82bd4e;}.cls-4,.cls-5{fill:none;stroke:#000;stroke-miterlimit:10;}.cls-4{stroke-width:2px;}.cls-5{stroke-width:3px;}</style></defs><title>Asset 6</title><g id="Layer_2" data-name="Layer 2"><g id="Background"><path class="cls-1" d="M274.41,329.13l-14.84,236.5s-1,.32-2.68.93c-4.51,1.64-13.77,5.37-20.36,10.46a28.26,28.26,0,0,0-4,3.61c-5.65-39.52-8-211.1-8.75-276-.18-15.57-.25-25-.25-25h73s41,21,73,59,35,34,24,62-46,124-46,124a36.73,36.73,0,0,0-7.23.85,97.59,97.59,0,0,0-16,5.12c-2.87,1.16-4.72,2-4.72,2,4-56,22-110,28-126s5-27-23-41S274.41,329.13,274.41,329.13Z"/><path class="cls-2" d="M367.57,533.63l.18.5C349,540.79,334.1,550.62,321.3,561c-.6-4.84.11-12.25,1-18.54.44-.36,12.12-10,19.14-11.87h0c1.14,2,3.46,3.43,8.13,2C359.57,529.63,367.57,530.63,367.57,533.63Z"/><path class="cls-1" d="M300.57,24.63h-23l-.41.2c-.37-.78-.59-1.2-.59-1.2l-.05-.05a58.81,58.81,0,0,0,5.05-4.95h19c8,0,21-1,53,40,27.81,35.63,27.71,73.44-15.5,80.65v0c3.14-12.39,3.26-25.3,1.69-37.62-4.17-32.77-20.28-61.37-23.19-65C307.57,35.63,300.57,24.63,300.57,24.63Z"/><path class="cls-1" d="M341.44,530.6h0c-7,1.92-18.7,11.51-19.14,11.87.91-6.54,2-11.87,2-11.87a97.59,97.59,0,0,1,16-5.12A9.94,9.94,0,0,0,341.44,530.6Z"/><path class="cls-1" d="M339.76,101.63c1.57,12.32,1.45,25.23-1.69,37.62v0A97.65,97.65,0,0,1,322,140.51h0s3.61-3.87.61-11.87-11-27-11-27Z"/><path class="cls-3" d="M305.58,139.53v.1c6.62,24.1-4,84-1.44,117a94.69,94.69,0,0,0,4.44,23h-95l-.43-.09c.16-.66.31-1.3.43-1.91.21-1.06.6-2.81,1.11-5.12,1.82-1.89,25.28-27.22,34.89-84.88,9.53-57.18-22.72-74.4-25.77-75.89a37,37,0,0,1,6.54-4.14h0c6.85-3.37,11.92-3,12.22-3,0,4.4-.55,8.4-2,11,0,0,12,16,32,16s24-24,24-24c-1.8-.72-3.21-3.12-4.28-5.9l.28-.1h19s8,19,11,27S322,140.5,322,140.5h0A147.2,147.2,0,0,1,305.58,139.53Z"/><path class="cls-1" d="M242.56,104.63c.05-10.84-3-24-3-24,4-5-2-19-2-19q-13.5-6-9-15c2.41-4.82,7-4,10-1s5,11,5,11h5c-17-31,7-23,20-28a28,28,0,0,0,7.95-5.05l.05.05s.22.42.59,1.2c4.15,8.38,27.86,58.08,12.41,65.8a57.63,57.63,0,0,0,2.72,11.1c1.07,2.78,2.48,5.18,4.28,5.9,0,0-4,24-24,24s-32-16-32-16C242,113,242.54,109,242.56,104.63Z"/><path class="cls-2" d="M294.56.65a114.09,114.09,0,0,1-13,18,58.81,58.81,0,0,1-5.05,4.95,28,28,0,0,1-7.95,5.05c-13,5-37-3-20,28h-5s-2-8-5-11-7.59-3.82-10,1q-4.5,9,9,15s6,14,2,19c-10-4-38-39-25-57s34.51-16.76,48-15C285.25,11.59,294.32.93,294.56.65Z"/><path class="cls-2" d="M268.57,588.63c12.31-.62,16.67,1.42,18.19,3.08-8.55,7.19-16.94,13-26.19,15.92a119.23,119.23,0,0,1-26,5.3,153.54,153.54,0,0,1,.41-19.3s7.5-8.35,22.07-9.68C258.83,586.9,262.32,588.94,268.57,588.63Z"/><path class="cls-1" d="M256.89,566.56S253,577.46,257,584c-14.57,1.33-22.07,9.68-22.07,9.68.64-9,1.6-16.61,1.6-16.61C243.12,571.93,252.38,568.2,256.89,566.56Z"/><path class="cls-3" d="M231.38,171.21a127.44,127.44,0,0,1-14.81-3.58,66.41,66.41,0,0,1-12-4.63c-4.78-2.49-6-4.37-6-4.37,4.24-17.25,9.94-29,15.83-37a50.37,50.37,0,0,1,9.4-9.89c3,1.49,35.3,18.71,25.77,75.89-9.61,57.66-33.07,83-34.89,84.88C219.08,253,233,193.19,231.38,171.21Z"/><path class="cls-1" d="M201.39,300.2a17.62,17.62,0,0,1-12.82,4.43s-4.94-2.42-1-4a12.73,12.73,0,0,0,5.13-4.07c3.91-4.76,8.25-14.72,5.87-34.93-4-34,2-88,6-98.63a66.41,66.41,0,0,0,12,4.63,127.44,127.44,0,0,0,14.81,3.58c1.62,22-12.3,81.76-16.7,101.3-.51,2.31-.9,4.06-1.11,5.12-.12.61-.27,1.25-.43,1.91C211.49,286.08,207.65,294.93,201.39,300.2Z"/><path class="cls-1" d="M223.8,111.74a50.37,50.37,0,0,0-9.4,9.89H125.57v-.38a30.71,30.71,0,0,1,30.62-30.62H203a30.74,30.74,0,0,1,27.39,17h0A37,37,0,0,0,223.8,111.74Z"/><path class="cls-1" d="M133.68,121.63H214.4c-5.89,8-11.59,19.75-15.83,37,0,0,1.26,1.88,6,4.37-4,10.63-10,64.63-6,98.63,2.38,20.21-2,30.17-5.87,34.93a58.68,58.68,0,0,1-30.4-39.92Z"/><path class="cls-4" d="M276.57,23.63s.22.42.59,1.2c4.15,8.38,27.86,58.08,12.41,65.8-18,9-37-7-37-7"/><path class="cls-4" d="M239.57,80.63c-10-4-38-39-25-57s34.51-16.76,48-15c22.68,3,31.75-7.7,32-8"/><path class="cls-4" d="M237.57,61.63s6,14,2,19"/><path class="cls-4" d="M237.57,61.63q-13.5-6-9-15c2.41-4.82,7-4,10-1s5,11,5,11h5c-17-31,7-23,20-28a28,28,0,0,0,7.95-5.05,58.81,58.81,0,0,0,5.05-4.95,114.09,114.09,0,0,0,13-18,0,0,0,0,0,0,0"/><path class="cls-4" d="M239.57,80.63s3,13.16,3,24c0,4.4-.55,8.4-2,11"/><path class="cls-4" d="M289.57,90.63a57.63,57.63,0,0,0,2.72,11.1c1.07,2.78,2.48,5.18,4.28,5.9"/><path class="cls-4" d="M296.57,107.63s-4,24-24,24-32-16-32-16"/><path class="cls-4" d="M281.57,18.63h19c8,0,21-1,53,40,27.81,35.63,27.71,73.44-15.5,80.65A97.65,97.65,0,0,1,322,140.51a147.2,147.2,0,0,1-16.38-1q-3.4-.36-7-.9"/><path class="cls-4" d="M316.57,36.63c2.91,3.63,19,32.23,23.19,65,1.57,12.32,1.45,25.23-1.69,37.62"/><polyline class="cls-4" points="292.57 101.63 311.57 101.63 339.76 101.63"/><path class="cls-4" d="M311.57,101.63s8,19,11,27S322,140.5,322,140.5"/><polyline class="cls-4" points="277.57 24.63 300.57 24.63 307.57 24.63"/><path class="cls-4" d="M300.57,24.63s7,11,16,12"/><path class="cls-4" d="M305.57,139.63c6.62,24.1-4,84-1.44,117a94.69,94.69,0,0,0,4.44,23h-95"/><path class="cls-4" d="M230.34,107.6a37,37,0,0,0-6.54,4.14,50.37,50.37,0,0,0-9.4,9.89c-5.89,8-11.59,19.75-15.83,37,0,0,1.26,1.88,6,4.37a66.41,66.41,0,0,0,12,4.63,127.44,127.44,0,0,0,14.81,3.58c4.76.78,6.19.42,6.19.42-2-12,2-34,2-34"/><path class="cls-4" d="M242.57,104.63h0c-.3,0-5.37-.41-12.22,3"/><path class="cls-4" d="M204.61,163c-4,10.63-10,64.63-6,98.63,2.38,20.21-2,30.17-5.87,34.93a12.73,12.73,0,0,1-5.13,4.07"/><path class="cls-4" d="M231.38,171.21c1.62,22-12.3,81.76-16.7,101.3-.51,2.31-.9,4.06-1.11,5.12-.12.61-.27,1.25-.43,1.91-1.65,6.54-5.49,15.39-11.75,20.66a17.62,17.62,0,0,1-12.82,4.43s-4.94-2.42-1-4"/><path class="cls-4" d="M223.57,279.63s.07,9.43.25,25c.71,64.9,3.1,236.48,8.75,276"/><path class="cls-4" d="M276.57,294.63l-2.16,34.5-14.84,236.5s-1,.32-2.68.93c-4.51,1.64-13.77,5.37-20.36,10.46a28.26,28.26,0,0,0-4,3.61"/><path class="cls-4" d="M236.53,577s-1,7.63-1.6,16.61a153.54,153.54,0,0,0-.41,19.3c0,.24,0,.47,0,.7"/><path class="cls-4" d="M256.89,566.56S253,577.46,257,584c1.83,2.95,5.32,5,11.57,4.68,12.31-.62,16.67,1.42,18.19,3.08a2.45,2.45,0,0,1,.81,1.92"/><path class="cls-4" d="M234.93,593.63s7.5-8.35,22.07-9.68"/><path class="cls-4" d="M274.41,329.13s22.16,22.5,50.16,36.5,29,25,23,41-24,70-28,126"/><path class="cls-4" d="M319.57,532.63s1.85-.87,4.72-2a97.59,97.59,0,0,1,16-5.12,36.73,36.73,0,0,1,7.23-.85s35-96,46-124,8-24-24-62-73-59-73-59"/><path class="cls-4" d="M324.29,530.6s-1.09,5.33-2,11.87c-.88,6.29-1.59,13.7-1,18.54q.1.87.27,1.62"/><path class="cls-4" d="M340.34,525.48a9.94,9.94,0,0,0,1.1,5.12c1.14,2,3.46,3.43,8.13,2,10-3,18-2,18,1"/><path class="cls-4" d="M322.28,542.48h0c.44-.36,12.12-10,19.14-11.87"/><path class="cls-4" d="M125.57,121.25a30.71,30.71,0,0,1,30.62-30.62H203a30.74,30.74,0,0,1,27.39,17h0"/><polyline class="cls-4" points="125.57 121.63 133.68 121.63 214.4 121.63 214.57 121.63"/><path class="cls-4" d="M201,300.07l.41.13a58.24,58.24,0,0,0,8.47,2.1l13.71,2.33"/><path class="cls-4" d="M133.68,121.63l28.62,135a58.68,58.68,0,0,0,30.4,39.92"/><path class="cls-5" d="M223.57,111.63l.23.11c3,1.49,35.3,18.71,25.77,75.89-9.61,57.66-33.07,83-34.89,84.88l-.11.12"/><path class="cls-4" d="M.57,743.63l159-111c32.55-24,48.72-17.34,75-19.7a119.23,119.23,0,0,0,26-5.3c9.25-3,17.64-8.73,26.19-15.92,10.64-9,21.51-20.12,34.54-30.7,12.8-10.39,27.67-20.22,46.45-26.88,15.8-5.6,34.38-9,56.82-8.5h1496"/></g></g></svg>