<svg xmlns="http://www.w3.org/2000/svg" xmlns:xlink="http://www.w3.org/1999/xlink" viewBox="0 0 1920 505"><defs><style>.cls-1,.cls-7,.cls-8,.cls-9{fill:none;}.cls-2{fill:#231f20;}.cls-3{fill:#fff;}.cls-4{fill:#82bd4e;}.cls-5{fill:url(#_10_dpi_20_);}.cls-6{fill:#628e3b;}.cls-7,.cls-8,.cls-9{stroke:#000;}.cls-7,.cls-8{stroke-miterlimit:10;}.cls-7{stroke-width:3px;}.cls-8,.cls-9{stroke-width:2px;}.cls-9{stroke-linecap:round;stroke-linejoin:round;}.cls-10{fill:#60695c;}.cls-11{fill:#d6f9dd;}</style><pattern id="_10_dpi_20_" data-name="10 dpi 20%" width="28.8" height="28.8" patternUnits="userSpaceOnUse" viewBox="0 0 28.8 28.8"><rect class="cls-1" width="28.8" height="28.8"/><path class="cls-2" d="M28.8,30.24a1.44,1.44,0,1,0-1.44-1.44A1.44,1.44,0,0,0,28.8,30.24Z"/><path class="cls-2" d="M14.4,30.24A1.44,1.44,0,1,0,13,28.8,1.44,1.44,0,0,0,14.4,30.24Z"/><path class="cls-2" d="M28.8,15.84a1.44,1.44,0,1,0-1.44-1.44A1.44,1.44,0,0,0,28.8,15.84Z"/><path class="cls-2" d="M14.4,15.84A1.44,1.44,0,1,0,13,14.4,1.44,1.44,0,0,0,14.4,15.84Z"/><path class="cls-2" d="M7.2,23A1.44,1.44,0,1,0,5.76,21.6,1.44,1.44,0,0,0,7.2,23Z"/><path class="cls-2" d="M21.6,23a1.44,1.44,0,1,0-1.44-1.44A1.44,1.44,0,0,0,21.6,23Z"/><path class="cls-2" d="M7.2,8.64A1.44,1.44,0,1,0,5.76,7.2,1.44,1.44,0,0,0,7.2,8.64Z"/><path class="cls-2" d="M21.6,8.64A1.44,1.44,0,1,0,20.16,7.2,1.44,1.44,0,0,0,21.6,8.64Z"/><path class="cls-2" d="M0,30.24A1.44,1.44,0,0,0,1.44,28.8,1.45,1.45,0,0,0,0,27.36,1.44,1.44,0,0,0-1.44,28.8,1.43,1.43,0,0,0,0,30.24Z"/><path class="cls-2" d="M0,15.84A1.44,1.44,0,0,0,1.44,14.4,1.45,1.45,0,0,0,0,13,1.44,1.44,0,0,0-1.44,14.4,1.43,1.43,0,0,0,0,15.84Z"/><path class="cls-2" d="M28.8,1.44A1.45,1.45,0,0,0,30.24,0,1.44,1.44,0,0,0,28.8-1.44,1.43,1.43,0,0,0,27.36,0,1.44,1.44,0,0,0,28.8,1.44Z"/><path class="cls-2" d="M14.4,1.44A1.45,1.45,0,0,0,15.84,0,1.44,1.44,0,0,0,14.4-1.44,1.43,1.43,0,0,0,13,0,1.44,1.44,0,0,0,14.4,1.44Z"/><path class="cls-2" d="M0,1.44A1.45,1.45,0,0,0,1.44,0,1.44,1.44,0,0,0,0-1.44,1.43,1.43,0,0,0-1.44,0,1.44,1.44,0,0,0,0,1.44Z"/></pattern></defs><title>cards</title><g id="Layer_2" data-name="Layer 2"><g id="person1"><rect class="cls-3" x="345.42" y="399" width="36" height="50"/><path d="M379.92,400.5v47h-33v-47h33m3-3h-39v53h39v-53Z"/><rect class="cls-3" x="164.42" y="109" width="75" height="103"/><path d="M237.92,110.5v100h-72v-100h72m3-3h-78v106h78v-106Z"/><path class="cls-4" d="M210,425.23c2.36-18.63-9.55-41.42-19.58-52.21-11.76-12.65-18.72-29.15-10.45-37.44s25.69,21.78,25.69,21.78c2.61-42.66,41.14-43.1,41.14-43.1a117.85,117.85,0,0,1,37.57,3.56c-3.31-46-46.61-58.08-78.28-58.85-35.7-.88-80.54,25.25-73.14,64.87,7.34,39.28,17.92,75.76-9.07,116.69v63H226.6v-2c-8.69-8.18-14.71-15.64-18.66-22.6-9.51-16.76-7-30.61-.5-44.45A30.74,30.74,0,0,0,210,425.23Z"/><path class="cls-3" d="M284.41,317.82a90.7,90.7,0,0,1-.78,19.3c-8.7,62.05,34.82,95.12,34.82,95.12h.47V238.5h-195v202c27-40.93,16.41-77.41,9.07-116.69-7.4-39.62,37.44-65.75,73.14-64.87C237.8,259.74,281.1,271.81,284.41,317.82Z"/><path class="cls-3" d="M180,335.58c-8.27,8.29-1.31,24.79,10.45,37.44,10,10.79,21.94,33.58,19.58,52.21,10,4.45,18,6.42,24.38,6.53,36.83.66,18.3-60.9,18.3-60.9a14,14,0,0,0,10.39-1.74c-5.29-10.45-16.27-54.86-16.27-54.86s-38.53.44-41.14,43.1C205.7,357.36,188.28,327.29,180,335.58Z"/><path class="cls-3" d="M207.44,434.43c-6.46,13.84-9,27.69.5,44.45,25.15-2.42,38.9-9.21,38.9-9.21a77.8,77.8,0,0,1-12.42-37.91c-6.35-.11-14.35-2.08-24.38-6.53A30.74,30.74,0,0,1,207.44,434.43Z"/><path class="cls-5" d="M207.94,478.88c3.95,7,10,14.42,18.66,22.6v2h89.25v-2c-37.92,0-58.18-15.45-69-31.81C246.84,469.67,233.09,476.46,207.94,478.88Z"/><path class="cls-6" d="M252.72,370.86s18.53,61.56-18.3,60.9a77.8,77.8,0,0,0,12.42,37.91c10.83,16.36,31.09,31.81,69,31.81v2h3.07V432.24h-.47s-43.52-33.07-34.82-95.12a90.7,90.7,0,0,0,.78-19.3,117.85,117.85,0,0,0-37.57-3.56s11,44.41,16.27,54.86A14,14,0,0,1,252.72,370.86Z"/><polygon class="cls-7" points="123.92 440.53 123.92 503.5 226.6 503.5 315.85 503.5 318.92 503.5 318.92 432.24 318.92 238.5 123.92 238.5 123.92 440.53"/><path class="cls-8" d="M209.18,424.85l.86.38c10,4.45,18,6.42,24.38,6.53,36.83.66,18.3-60.9,18.3-60.9a14,14,0,0,0,10.39-1.74c-5.29-10.45-16.27-54.86-16.27-54.86s-38.53.44-41.14,43.1c0,0-17.42-30.07-25.69-21.78S178.7,360.37,190.46,373c10,10.79,21.94,33.58,19.58,52.21a30.74,30.74,0,0,1-2.6,9.2c-6.46,13.84-9,27.69.5,44.45,3.95,7,10,14.42,18.66,22.6"/><path class="cls-8" d="M318.45,432.24s-43.52-33.07-34.82-95.12a90.7,90.7,0,0,0,.78-19.3c-3.31-46-46.61-58.08-78.28-58.85-35.7-.88-80.54,25.25-73.14,64.87,7.34,39.28,17.92,75.76-9.07,116.69q-.33.53-.69,1.05"/><path class="cls-8" d="M246.84,314.26a117.85,117.85,0,0,1,37.57,3.56h0"/><path class="cls-8" d="M234.42,431.76a77.8,77.8,0,0,0,12.42,37.91c10.83,16.36,31.09,31.81,69,31.81"/><path class="cls-9" d="M246.84,469.67s-13.75,6.79-38.9,9.21"/><path class="cls-5" d="M265.92,201.59V213.5H372.2V192.73c-6.36-5.73-10.78-13.53-13.83-21.51h0s-26.23,11.13-75.4-13.28c-8.73,23.44-14.85,43.65-14.85,43.65Z"/><path class="cls-3" d="M265.92,1.5V201.59h2.19s6.12-20.21,14.85-43.65c2.59-7,5.42-14.21,8.39-21.3.16-.41.33-.82.51-1.22a1.8,1.8,0,0,0,.08-.21c6.57-16.92,7.56-57.47-14.1-90.29-22.31-33.78,38.7-39.11,101.23-22.15,0,0,31,5.43,4.39,43.75,4.36,11.56,9.75,24.94,13.91,32.51,8.39,15.25-22.12-4.58-22.12-4.58v47.28a90.83,90.83,0,0,1-23.79-5.49c0,.52.44,18.13,6.91,35,3.05,8,7.47,15.78,13.83,21.51V213.5h49.72V1.5Z"/><path class="cls-10" d="M379.07,22.77c-62.53-17-123.54-11.63-101.23,22.15,21.66,32.82,20.67,73.37,14.1,90.29,7.6-18,16.05-34.72,23.83-42.85,21.36-22.31,10.11-28.22,3.25-35.08,0,0-24.5-18.11,7.05-17,0,0,8,33.55,15.63,48.42l4-4.19c-4.42-10.29-9.3-44.23-9.3-44.23C360,51,375.64,44.92,375.64,44.92s3.38,9.86,7.82,21.6C410.05,28.2,379.07,22.77,379.07,22.77Z"/><path class="cls-3" d="M351.46,136.24a90.83,90.83,0,0,0,23.79,5.49V94.45s30.51,19.83,22.12,4.58c-4.16-7.57-9.55-21-13.91-32.51-4.44-11.74-7.82-21.6-7.82-21.6S360,51,336.36,40.31c0,0,4.88,33.94,9.3,44.23l-4,4.19c-7.62-14.87-15.63-48.42-15.63-48.42-31.55-1.14-7.05,17-7.05,17,6.86,6.86,18.11,12.77-3.25,35.08-7.78,8.13-16.23,24.87-23.83,42.85a1.8,1.8,0,0,1-.08.21c-.17.42-.34.83-.51,1.22-3,7.09-5.8,14.33-8.39,21.3,49.17,24.41,75.4,13.28,75.4,13.28h0C351.9,154.37,351.47,136.76,351.46,136.24Z"/><path class="cls-3" d="M291.35,136.64c.17-.39.34-.8.51-1.22C291.68,135.82,291.51,136.23,291.35,136.64Z"/><polygon class="cls-7" points="265.92 201.59 265.92 213.5 372.2 213.5 421.92 213.5 421.92 1.5 265.92 1.5 265.92 201.59"/><path class="cls-8" d="M375.64,44.92s3.38,9.86,7.82,21.6c4.36,11.56,9.75,24.94,13.91,32.51,8.39,15.25-22.12-4.58-22.12-4.58v47.28a90.83,90.83,0,0,1-23.79-5.49c-10.31-4-21-10.8-25.39-22.34"/><path class="cls-8" d="M375.64,44.92S360,51,336.36,40.31c0,0,4.88,33.94,9.3,44.23l-4,4.19"/><path class="cls-8" d="M291.94,135.21c7.6-18,16.05-34.72,23.83-42.85,21.36-22.31,10.11-28.22,3.25-35.08,0,0-24.5-18.11,7.05-17,0,0,8,33.55,15.63,48.42"/><path class="cls-8" d="M268.11,201.59s6.12-20.21,14.85-43.65c2.59-7,5.42-14.21,8.39-21.3.16-.41.33-.82.51-1.22"/><path class="cls-8" d="M291.35,136.64c.17-.39.34-.8.51-1.22a1.8,1.8,0,0,0,.08-.21c6.57-16.92,7.56-57.47-14.1-90.29-22.31-33.78,38.7-39.11,101.23-22.15,0,0,31,5.43,4.39,43.75l-.38.55"/><path class="cls-8" d="M351.46,136.23h0c0,.52.44,18.13,6.91,35,3.05,8,7.47,15.78,13.83,21.51v18.85"/><path class="cls-8" d="M358.36,171.22s-26.23,11.13-75.4-13.28"/><path class="cls-5" d="M343.92,358.75V372.5H500.28V371c-12.54-9.44-21-21.57-26.47-31.59,0,0-65.47,18.75-103.71-2.47-7.44,9.88-16.72,16.6-23.86,21.81Z"/><path class="cls-3" d="M433.78,147.28l1.91.05h0c30,0,50.91-34.42,61.94,10.12C504,183,486.4,186.07,464.23,185.1c0,0,9.73,46.05,21.78,67.88,0,0-3.93,2.43-8.81,4.79-.12.37-2.66,8.59,1.21,14.41h0a17.22,17.22,0,0,1,3.16,1.56c14,8.88,2.19,24.1,17.38,38.9s7.15,21.15-3,20.73c-4.87-.21-17.34-6.06-30.29-13.07a101.22,101.22,0,0,0,8.15,19.1c5.42,10,13.93,22.15,26.47,31.59v1.5h38.64v-265h-195V358.75h2.32c7.14-5.21,16.42-11.93,23.86-21.81a62.38,62.38,0,0,0,8-14,.18.18,0,0,1,0-.05c.11-.4.89-3.27,2.74-8.33a.08.08,0,0,1,0,0c4.41-17.62,2.36-41.48-13.47-74.55-36.8-76.88,3.77-84.5,30.87-90.17C409.61,147.46,422.46,147,433.78,147.28Z"/><path class="cls-11" d="M435.7,147.33h0c-.63,0-1.27,0-1.91-.05-11.32-.29-24.17.18-35.52,2.55-27.1,5.67-67.67,13.29-30.87,90.17,15.83,33.07,17.88,56.93,13.47,74.55a281.88,281.88,0,0,1,16.55-36.15c7.09-13.23,8.92-21.5,7.46-28.47-1.64-7.87-7.47-14.11-14.65-24-13.53-18.61-17.76-33.84-2.11-39.33,14.8-5.2,13,29.32,19.51,62.77.37,1.92.77,3.84,1.21,5.74,8,35.1,10.15,35.1,22,44,6.16,4.62,20.79,13.59,34.84,21.19,12.95,7,25.42,12.86,30.29,13.07,10.15.42,18.18-5.93,3-20.73s-3.42-30-17.38-38.9a17.22,17.22,0,0,0-3.16-1.56c-16-6.17-50.55,1.56-50.55,1.56-19.45-38.91-16.07-89.24-16.07-89.24,13.77-3.58,34.6-.18,52.44.59,22.17,1,39.74-2.11,33.41-27.65C486.61,112.91,465.71,147.32,435.7,147.33Z"/><path class="cls-3" d="M378.1,323a62.38,62.38,0,0,1-8,14c38.24,21.22,103.71,2.47,103.71,2.47a101.22,101.22,0,0,1-8.15-19.1c-14.05-7.6-28.68-16.57-34.84-21.19-11.84-8.88-13.95-8.88-22-44-.44-1.9-.84-3.82-1.21-5.74l-2.75.53c1.46,7-.37,15.24-7.46,28.47a281.88,281.88,0,0,0-16.55,36.15.08.08,0,0,0,0,0,59.78,59.78,0,0,1-2.74,8.33A.18.18,0,0,0,378.1,323Z"/><path class="cls-3" d="M388.11,186.63c-15.65,5.49-11.42,20.72,2.11,39.33,7.18,9.86,13,16.1,14.65,24l2.75-.53C401.07,216,402.91,181.43,388.11,186.63Z"/><path class="cls-3" d="M477.2,257.77C482.08,255.41,486,253,486,253,474,231.15,464.23,185.1,464.23,185.1c-17.84-.77-38.67-4.17-52.44-.59,0,0-3.38,50.33,16.07,89.24,0,0,34.57-7.73,50.55-1.56h0C474.54,266.36,477.08,258.14,477.2,257.77Z"/><polygon class="cls-7" points="343.92 358.75 343.92 372.5 500.28 372.5 538.92 372.5 538.92 107.5 343.92 107.5 343.92 358.75"/><path class="cls-8" d="M378.1,323a62.38,62.38,0,0,1-8,14c-7.44,9.88-16.72,16.6-23.86,21.81"/><path class="cls-8" d="M380.85,314.59a59.78,59.78,0,0,1-2.74,8.33"/><path class="cls-8" d="M435.69,147.33l-1.91-.05c-11.32-.29-24.17.18-35.52,2.55-27.1,5.67-67.67,13.29-30.87,90.17,15.83,33.07,17.88,56.93,13.47,74.55"/><path class="cls-8" d="M464.23,149.83a259.15,259.15,0,0,0-28.53-2.5"/><path class="cls-8" d="M432.51,147.2c.42,0,.85.06,1.27.08.64,0,1.28.05,1.91.05h0c30,0,50.91-34.42,61.94,10.12C504,183,486.4,186.07,464.23,185.1c-17.84-.77-38.67-4.17-52.44-.59,0,0-3.38,50.33,16.07,89.24,0,0,34.57-7.73,50.55-1.56a17.22,17.22,0,0,1,3.16,1.56c14,8.88,2.19,24.1,17.38,38.9s7.15,21.15-3,20.73c-4.87-.21-17.34-6.06-30.29-13.07-14.05-7.6-28.68-16.57-34.84-21.19-11.84-8.88-13.95-8.88-22-44-.44-1.9-.84-3.82-1.21-5.74-6.55-33.45-4.71-68-19.51-62.77-15.65,5.49-11.42,20.72,2.11,39.33,7.18,9.86,13,16.1,14.65,24,1.46,7-.37,15.24-7.46,28.47a281.88,281.88,0,0,0-16.55,36.15.08.08,0,0,0,0,0c-1.85,5.06-2.63,7.93-2.74,8.33a.18.18,0,0,0,0,.05"/><path class="cls-8" d="M464.23,185.1S474,231.15,486,253c0,0-3.93,2.43-8.81,4.79-4.25,2.06-9.23,4.05-13,4.35"/><path class="cls-8" d="M477.2,257.76h0c-.12.37-2.66,8.59,1.21,14.41"/><path class="cls-8" d="M465.66,320.31a101.22,101.22,0,0,0,8.15,19.1c5.42,10,13.93,22.15,26.47,31.59"/><path class="cls-8" d="M473.81,339.41s-65.47,18.75-103.71-2.47"/></g><g id="lines"><line class="cls-8" x1="240.92" y1="54.5" y2="54.5"/><line class="cls-8" x1="343.92" y1="477" x2="1920" y2="477"/></g></g></svg>