<?xml version="1.0" encoding="utf-8"?>
<!-- Generator: Adobe Illustrator 23.0.3, SVG Export Plug-In . SVG Version: 6.00 Build 0)  -->
<svg version="1.1" id="Layer_1" xmlns="http://www.w3.org/2000/svg" xmlns:xlink="http://www.w3.org/1999/xlink" x="0px" y="0px"
	 viewBox="0 0 48 48" style="enable-background:new 0 0 48 48;" xml:space="preserve">
<style type="text/css">
	.st0{fill:none;stroke:#000000;stroke-width:0.25;stroke-miterlimit:10;}
</style>
<path id="surface1" class="st0" d="M40,12c0,0-4.6-3.6-10-4l-0.5,1c4.9,1.2,7.1,2.9,9.5,5c-4-2.1-8-4-15-4s-11,1.9-15,4
	c2.3-2.1,5-4,9.5-5L18,8c-5.7,0.5-10,4-10,4s-5.1,7.4-6,22c5.2,6,13,6,13,6l1.6-2.2c-2.8-1-5.9-2.7-8.6-5.8c3.2,2.5,8.1,5,16,5
	s12.8-2.5,16-5c-2.7,3.1-5.9,4.8-8.6,5.8L33,40c0,0,7.8,0,13-6C45.1,19.4,40,12,40,12z M17.5,30c-1.9,0-3.5-1.8-3.5-4s1.6-4,3.5-4
	s3.5,1.8,3.5,4S19.4,30,17.5,30z M30.5,30c-1.9,0-3.5-1.8-3.5-4s1.6-4,3.5-4s3.5,1.8,3.5,4S32.4,30,30.5,30z"/>
</svg>
