<svg width="72" height="72" viewBox="0 0 72 72" fill="none" xmlns="http://www.w3.org/2000/svg">
<path d="M60.951 12.9668C56.362 10.8611 51.441 9.30979 46.2957 8.42127C46.202 8.40412 46.1084 8.44697 46.0601 8.53269C45.4272 9.65833 44.7262 11.1268 44.2353 12.2811C38.7012 11.4525 33.1955 11.4525 27.775 12.2811C27.2839 11.1012 26.5575 9.65833 25.9217 8.53269C25.8735 8.44983 25.7799 8.40698 25.6861 8.42127C20.5437 9.30695 15.6227 10.8583 11.0308 12.9668C10.9911 12.9839 10.957 13.0125 10.9344 13.0496C1.60018 26.9947 -0.956851 40.597 0.29754 54.0307C0.303216 54.0964 0.34011 54.1593 0.391194 54.1993C6.54963 58.7219 12.5151 61.4675 18.3698 63.2874C18.4635 63.316 18.5628 63.2817 18.6224 63.2045C20.0074 61.3133 21.2419 59.3191 22.3004 57.2219C22.3629 57.0991 22.3033 56.9534 22.1756 56.9048C20.2174 56.162 18.3528 55.2563 16.5592 54.2279C16.4173 54.145 16.406 53.9421 16.5365 53.8449C16.9139 53.5621 17.2915 53.2678 17.6519 52.9707C17.7171 52.9164 17.8079 52.905 17.8846 52.9393C29.6679 58.3191 42.4246 58.3191 54.0689 52.9393C54.1455 52.9021 54.2364 52.9136 54.3044 52.9679C54.6649 53.265 55.0424 53.5621 55.4227 53.8449C55.5532 53.9421 55.5447 54.145 55.4028 54.2279C53.6092 55.2763 51.7446 56.162 49.7835 56.902C49.6559 56.9506 49.5991 57.0991 49.6615 57.2219C50.7428 59.3161 51.9773 61.3103 53.3367 63.2017C53.3935 63.2817 53.4956 63.316 53.5893 63.2874C59.4724 61.4675 65.4379 58.7219 71.5963 54.1993C71.6502 54.1593 71.6843 54.0993 71.69 54.0336C73.1912 38.5027 69.1755 25.012 61.0446 13.0525C61.0248 13.0125 60.9908 12.9839 60.951 12.9668ZM24.0601 45.851C20.5125 45.851 17.5894 42.5941 17.5894 38.5942C17.5894 34.5944 20.4558 31.3374 24.0601 31.3374C27.6926 31.3374 30.5874 34.623 30.5306 38.5942C30.5306 42.5941 27.6642 45.851 24.0601 45.851ZM47.9842 45.851C44.4368 45.851 41.5137 42.5941 41.5137 38.5942C41.5137 34.5944 44.38 31.3374 47.9842 31.3374C51.6169 31.3374 54.5116 34.623 54.4549 38.5942C54.4549 42.5941 51.6169 45.851 47.9842 45.851Z" fill="white"/>
</svg>
