<svg xmlns="http://www.w3.org/2000/svg" viewBox="0 0 268.01 190.42"><defs><style>.cls-1{fill:#60695c;}.cls-2{fill:#1a1a1a;}.cls-3{fill:#fff;}.cls-4{fill:none;stroke:#000;stroke-miterlimit:10;stroke-width:2px;}.cls-5{fill:#99f7ab;}</style></defs><title>e-people3</title><g id="Layer_2" data-name="Layer 2"><g id="person3"><path class="cls-1" d="M139.7,189.42H1s1.66-46.09,25-72a54.25,54.25,0,0,1,10.54-9.15l0,0a49.72,49.72,0,0,1,27.9-8,55.24,55.24,0,0,1,24.25,5.47v0a58.1,58.1,0,0,1,10.4,6.45C130.77,136.44,139.7,189.42,139.7,189.42Z"/><path class="cls-2" d="M24.2,86.93C11.75,82.63,7.26,76.15,5.34,63.66c-1.83-11.91,8-20.28,10.89-22.49-1.43-2.28-2.37-5.84-.14-10.83C19.51,22.62,25,18.33,33.62,18v0S50.86-7.62,61.23,13.14c2.15,4.3,6.45,4.3,15.05,0s18.27,3.22,25.8,14-1.32,28.12-1.52,28.5h0a31.7,31.7,0,0,0,6.89,4.81c5.94,3,12.78,15.94-2.07,21.35,0,0,11.2,22.94-6.27,30.36a58.1,58.1,0,0,0-10.4-6.45v0c-.07-.45-1.58-11.71-10.28-19.44-9.67-8.6-30.1-4.3-30.1-4.3-2.08,17.7-11.21,25.81-11.77,26.3l0,0A54.25,54.25,0,0,0,26,117.4l-1.31-1.07C14.78,112.37,22.86,90.39,24.2,86.93Z"/><path class="cls-3" d="M78.43,86.23c8.7,7.73,10.21,19,10.28,19.44a55.24,55.24,0,0,0-24.25-5.47,49.72,49.72,0,0,0-27.9,8c.56-.49,9.69-8.6,11.77-26.3C48.33,81.93,68.76,77.63,78.43,86.23Z"/><path class="cls-4" d="M36.53,108.25A54.25,54.25,0,0,0,26,117.4C2.7,143.33,1,189.42,1,189.42H139.7s-8.93-53-40.59-77.28a58.1,58.1,0,0,0-10.4-6.45"/><path class="cls-4" d="M88.71,105.67a55.24,55.24,0,0,0-24.25-5.47,49.72,49.72,0,0,0-27.9,8"/><path class="cls-4" d="M19.31,44.31a9.85,9.85,0,0,1-3.08-3.14c-1.43-2.28-2.37-5.84-.14-10.83C19.51,22.62,25,18.33,33.62,18a35.43,35.43,0,0,1,7.19.51"/><path class="cls-4" d="M17,40.58s-.3.2-.81.59C13.29,43.38,3.51,51.75,5.34,63.66c1.92,12.49,6.41,19,18.86,23.27,1.48.51,3.08,1,4.78,1.45"/><path class="cls-4" d="M24.38,86.47l-.18.46c-1.34,3.46-9.42,25.44.48,29.4"/><path class="cls-4" d="M100.56,55.62a31.7,31.7,0,0,0,6.89,4.81c5.94,3,12.78,15.94-2.07,21.35A32.78,32.78,0,0,1,101,83"/><path class="cls-4" d="M94.55,44.31c-.68,3.45,2.16,7.79,6,11.3"/><path class="cls-4" d="M105.38,81.78s11.2,22.94-6.27,30.36"/><path class="cls-4" d="M36.53,108.25l0,0c.56-.49,9.69-8.6,11.77-26.3,0,0,20.43-4.3,30.1,4.3,8.7,7.73,10.21,19,10.28,19.44v0"/><path class="cls-4" d="M100.56,55.62h0c.2-.38,9-17.87,1.52-28.5s-17.2-18.27-25.8-14-12.9,4.3-15.05,0C50.86-7.62,33.62,18,33.62,18"/><path class="cls-5" d="M203.45,107.27c36.44,14.7,63.09,82.15,63.09,82.15H110.68c2.46-14.77,20.57-55.21,48.61-74.48h0c8.69-6,18.34-9.92,28.77-10.43A36.3,36.3,0,0,1,203.45,107.27Z"/><path class="cls-2" d="M146.54,53.74C138.83,41.34,144,27.11,144,27.11l.07,0c-2.48-9.68,3-16.47,8.53-20.4,7.52-5.38,17.57,0,17.57,0,6.62-4.82,16.58-8.27,23.27-3.25,5.21,3.9,5.29,9.38,4.55,14.51-.48,3.37-1.32,6.59-1.32,9.14,0,4.58,4.33,7.52,7.22,13.47a24.93,24.93,0,0,1,2.45,9.1c1.08,12.9-16.12,22.58-10.75,32.25-17.19-8.6-30.27-.15-30.27-.15.11-1.76.18-3.52.18-5.22C139.7,70.11,142.12,58.29,146.15,54Z"/><path class="cls-2" d="M198,18s13.14,12.43,5.9,22.61c-2.89-5.95-7.22-8.89-7.22-13.47C196.67,24.56,197.51,21.34,198,18Z"/><path class="cls-3" d="M195.59,81.93c4.59,8.27,7.21,21.63,7.86,25.34a36.3,36.3,0,0,0-15.38-2.77C177.64,105,168,109,159.3,114.93c.17-.58,5-17.45,6-33.15C165.32,81.78,178.4,73.33,195.59,81.93Z"/><path class="cls-4" d="M159.29,114.94c-28,19.27-46.15,59.71-48.61,74.48H266.54S239.89,122,203.45,107.27a36.3,36.3,0,0,0-15.38-2.77C177.64,105,168,109,159.3,114.93"/><path class="cls-4" d="M165.5,76.56c0,1.7-.07,3.46-.18,5.22-1,15.7-5.85,32.57-6,33.15h0"/><path class="cls-4" d="M203.62,108.25s-.05-.35-.17-1c-.65-3.71-3.27-17.07-7.86-25.34-5.37-9.67,11.83-19.35,10.75-32.25a24.93,24.93,0,0,0-2.45-9.1c-2.89-5.95-7.22-8.89-7.22-13.47,0-2.55.84-5.77,1.32-9.14.74-5.13.66-10.61-4.55-14.51-6.69-5-16.65-1.57-23.27,3.25A26.22,26.22,0,0,0,165.5,11"/><path class="cls-4" d="M170.17,6.71s-10-5.4-17.57,0c-5.51,3.93-11,10.72-8.53,20.4a32.16,32.16,0,0,0,6.38,11.84"/><path class="cls-4" d="M144,27.11s-5.17,14.23,2.54,26.63a30,30,0,0,0,10.36,9.92"/><path class="cls-4" d="M146.15,54c-4,4.31-6.45,16.13,19.35,22.58"/><path class="cls-4" d="M165.32,81.78s13.08-8.45,30.27.15"/><path class="cls-4" d="M198,18s13.14,12.43,5.9,22.61"/></g></g></svg>