<svg xmlns="http://www.w3.org/2000/svg" viewBox="0 0 268.39 200.83"><defs><style>.cls-1{fill:#82bd4e;}.cls-2{fill:#fff;}.cls-3{fill:#1a1a1a;}.cls-4{fill:none;stroke:#000;stroke-miterlimit:10;stroke-width:2px;}.cls-5{fill:#c5d6d8;}</style></defs><title>e-people2</title><g id="Layer_2" data-name="Layer 2"><g id="person2"><path class="cls-1" d="M156.06,199.83H1.35S18.8,143,46.84,114.56c13.42-13.64,29.29-20.78,46.84-12C112.8,112.06,133.92,140.45,156.06,199.83Z"/><path class="cls-2" d="M103.16,39.14c8,13,10,31.94-4,41.92a13.57,13.57,0,0,1-9.45,2.35C78.31,82.27,66,70,63.64,67.52h0a28.43,28.43,0,0,1,1.59-3.42c4-7-13-16-13-19s2-7,9-2,7,0,3-6l-4-6s5-1,19-9c3.21-1.84,5.8-2.62,8-2.57C94.42,19.75,97,29.15,103.16,39.14Z"/><path class="cls-2" d="M93.68,102.52h0c-17.55-8.75-33.42-1.61-46.84,12l-.07-.06s7.1-7.11,8.83-20.65c1.62-6.21,5.12-19.13,8-26.33C66,70,78.31,82.27,89.72,83.41v.08S86.69,92.54,93.68,102.52Z"/><path class="cls-3" d="M71,4C78.46,1.43,92.36-.93,87.17,19.59h0c-2.16-.05-4.75.73-8,2.57-14,8-19,9-19,9l4,6c4,6,4,11-3,6s-9-1-9,2,17,12,13,19a28.43,28.43,0,0,0-1.59,3.42h0c-2.92,7.2-6.42,20.12-8,26.33C57,82.79,54.84,67.42,42.28,48.12c-26-39.94,8.49-38.39,13.4-38C60.27,3.72,65.91-3,71,4Z"/><path class="cls-4" d="M63.64,67.52C66,70,78.31,82.27,89.72,83.41a13.57,13.57,0,0,0,9.45-2.35c14-10,12-28.95,4-41.92-6.15-10-8.74-19.39-16-19.54-2.16-.05-4.75.73-8,2.57-14,8-19,9-19,9"/><path class="cls-4" d="M63.24,67.08l.4.43"/><path class="cls-4" d="M46.77,114.5s7.1-7.11,8.83-20.65C57,82.79,54.84,67.42,42.28,48.12c-26-39.94,8.49-38.39,13.4-38l.57.06"/><path class="cls-4" d="M51.26,16.18c1.3-1.56,2.79-3.78,4.42-6C60.27,3.72,65.91-3,71,4l.18.25"/><path class="cls-4" d="M66.73,5.7A40.36,40.36,0,0,1,71,4C78.46,1.43,92.36-.93,87.17,19.59"/><path class="cls-4" d="M54.69,97.39S55,96,55.6,93.85c1.62-6.21,5.12-19.13,8-26.33h0a28.43,28.43,0,0,1,1.59-3.42c4-7-13-16-13-19s2-7,9-2,7,0,3-6l-4-6"/><path class="cls-4" d="M89.71,83.49s-3,9.05,4,19"/><path class="cls-4" d="M46.84,114.56C18.8,143,1.35,199.83,1.35,199.83H156.06c-22.14-59.38-43.26-87.77-62.38-97.3C76.13,93.78,60.26,100.92,46.84,114.56Z"/><path class="cls-5" d="M266.85,199.83H102.16s20-50.28,51.07-74.38c12.37-9.59,26.5-15,41.82-11.46h0C217.11,119.14,241.6,142.94,266.85,199.83Z"/><path class="cls-5" d="M216.12,30.55A3.39,3.39,0,0,1,214.45,36c-4.43,1.29-10,4.12-15.53,7.35a54.34,54.34,0,0,0-3.86-6.3h0s11.13-6.3,17.76-7.62a3.68,3.68,0,0,1,.66-.06A3.41,3.41,0,0,1,216.12,30.55Z"/><path class="cls-2" d="M187.68,98.93c0,.46-.37,12.11,7.37,15.06-15.32-3.57-29.45,1.87-41.82,11.46a120.65,120.65,0,0,0,3-18.44S163.05,79.06,173,71.08s-10-1-10-5c0-3.77,2.65-10.18,8.81-9.25.8.12,3.48,1.68,4.16,1.26,3.41-2.07,13.13-9.07,22.9-14.78C211.32,66.77,210.07,101.27,187.68,98.93Z"/><path class="cls-3" d="M195.06,37a54.34,54.34,0,0,1,3.86,6.3C189.15,49,179.43,56,176,58.1c-.68.42-3.36-1.14-4.16-1.26-6.16-.93-8.81,5.48-8.81,9.25,0,4,20-3,10,5S156.26,107,156.26,107c1.12-12.58.57-28.94-7.18-40.2C159.93,51.73,194.25,37.36,195.06,37Z"/><path class="cls-5" d="M192,33.15A45.37,45.37,0,0,1,195.06,37c-.81.34-35.13,14.71-46,29.79a28.9,28.9,0,0,0-4-4.72c-.67-.63-1.31-1.26-1.91-1.88,0,0,2.91-8.1,10.9-10.09-7-11-20.49-7.32-20.49-7.32-.45-8,5.52-13.85,11.5-18.63C155.06,16.18,169,7.2,192,33.15Z"/><path class="cls-3" d="M154.07,50.12c-8,2-10.9,10.09-10.9,10.09-6.61-6.78-9.32-12.5-9.59-17.41C133.58,42.8,147.08,39.14,154.07,50.12Z"/><path class="cls-4" d="M195.05,114c-15.32-3.57-29.45,1.87-41.82,11.46-31,24.1-51.07,74.38-51.07,74.38H266.85c-25.25-56.89-49.74-80.69-71.78-85.83"/><path class="cls-4" d="M153.23,125.45a120.65,120.65,0,0,0,3-18.44c1.12-12.58.57-28.94-7.18-40.2a28.9,28.9,0,0,0-4-4.72c-.67-.63-1.31-1.26-1.91-1.88-6.61-6.78-9.32-12.5-9.59-17.41-.45-8,5.52-13.85,11.5-18.63,10-8,24-17,46.91,9A45.37,45.37,0,0,1,195.06,37a54.34,54.34,0,0,1,3.86,6.3c12.4,23.45,11.15,58-11.24,55.61C182.59,98.4,176.4,96,169,91"/><path class="cls-4" d="M187.68,98.92h0c0,.46-.37,12.11,7.37,15.06h0"/><path class="cls-4" d="M156.26,107S163.05,79.06,173,71.08s-10-1-10-5c0-3.77,2.65-10.18,8.81-9.25.8.12,3.48,1.68,4.16,1.26,3.41-2.07,13.13-9.07,22.9-14.78,5.54-3.23,11.1-6.06,15.53-7.35a3.38,3.38,0,0,0-1-6.63,3.68,3.68,0,0,0-.66.06C206.2,30.72,195.07,37,195.07,37h0c-.81.34-35.13,14.71-46,29.79"/><path class="cls-4" d="M154.07,50.12c-8,2-10.9,10.09-10.9,10.09"/><path class="cls-4" d="M133.58,42.8s13.5-3.66,20.49,7.32"/></g></g></svg>