<svg xmlns="http://www.w3.org/2000/svg" viewBox="0 0 268.02 225.99"><defs><style>.cls-1{fill:#1a1a1a;}.cls-2{fill:#d6f9dd;}.cls-3{fill:#fff;}.cls-4{fill:none;stroke:#000;stroke-miterlimit:10;stroke-width:2px;}</style></defs><title>e-people1</title><g id="Layer_2" data-name="Layer 2"><g id="person1"><path class="cls-1" d="M84.69,225c-42.57,0-75.82,0-76-.22-31.12-31.11,41.5-27.5,54-40s-34.5-42.5-11-66,45.5-10.5,63-28-1.44-41.35,8-71c5.37-16.87,48.94-32.56,74.39,1.15h0c-.08.66-3.44,28-7.39,36.84s-13,15-25,0-19,2-10,9c5.7,4.43,9.39,16.07,8.28,28.33a42.35,42.35,0,0,1-7.28,20.67c-2.82,4-7.41,9.32-13,15.79-18.11,21-46.55,54.2-58,93.21Z"/><path class="cls-2" d="M266.69,224.77s-99.57.19-175,.22v-.22c17-29.94,32.72-51,47.27-65.26,20.68-20.23,38.91-26.57,54.64-24.62C241.88,140.84,266.69,224.77,266.69,224.77Z"/><path class="cls-3" d="M193.6,134.89c-15.73-1.95-34,4.39-54.64,24.62h0c5.27-11.26,3.76-27.94,3.76-27.94,5.57-6.47,10.16-11.79,13-15.79A42.35,42.35,0,0,0,163,95.1c2,2.42,15.09,17.62,27.71,24.58h0C190.67,120.06,190.57,129.13,193.6,134.89Z"/><path class="cls-3" d="M213.69,66.77c7.75,57.48-7.3,61.58-23,52.92h0C178.06,112.72,165,97.52,163,95.1c1.11-12.26-2.58-23.9-8.28-28.33-9-7-2-24,10-9s21,9,25,0,7.31-36.18,7.39-36.84C204.83,31.19,210.89,46,213.69,66.77Z"/><path class="cls-4" d="M197.08,20.92c-25.45-33.71-69-18-74.39-1.15-9.44,29.65,9.5,53.5-8,71s-39.5,4.5-63,28,23.5,53.5,11,66-85.12,8.89-54,40c.18.18,33.43.23,76,.22h7c75.43,0,175-.22,175-.22s-24.81-83.93-73.09-89.88c-15.73-1.95-34,4.39-54.64,24.62-14.55,14.22-30.31,35.32-47.27,65.26"/><path class="cls-4" d="M190.68,119.69c15.71,8.66,30.76,4.56,23-52.92-2.8-20.75-8.86-35.58-16.61-45.84"/><path class="cls-4" d="M162.69,94.77l.28.33c2,2.42,15.09,17.62,27.71,24.58"/><path class="cls-4" d="M84.69,224.77c11.47-39,39.91-72.17,58-93.21,5.57-6.47,10.16-11.79,13-15.79A42.35,42.35,0,0,0,163,95.1c1.11-12.26-2.58-23.9-8.28-28.33-9-7-2-24,10-9s21,9,25,0,7.31-36.18,7.39-36.84h0"/><path class="cls-4" d="M190.68,119.68h0c0,.37-.11,9.44,2.92,15.2"/><path class="cls-4" d="M142.71,131.56s1.51,16.68-3.76,27.94"/></g></g></svg>