<svg xmlns="http://www.w3.org/2000/svg" viewBox="0 0 1920 578.57"><defs><style>.cls-1{fill:#fff;}.cls-2{fill:#c2facd;}.cls-3{fill:#666;}.cls-4{fill:#333;}.cls-5{fill:#99f7ab;}.cls-6{fill:none;stroke:#000;stroke-miterlimit:10;stroke-width:2px;}</style></defs><title>girl_1</title><g id="Layer_2" data-name="Layer 2"><g id="other"><path class="cls-1" d="M449.94,282.41A1.27,1.27,0,0,1,448.6,284a1.2,1.2,0,0,1-.9-.48l-4-5.13a5.16,5.16,0,0,0-7.4-.73,5,5,0,0,0-.95,1.08l-5.57,8.49a14.58,14.58,0,0,1-1.46,1.86A15,15,0,0,1,417.18,294H401.74v-14h5.38a12.62,12.62,0,0,0,10.64-5.82l2-3.07A11,11,0,0,1,429,266.1h10.81a7.69,7.69,0,0,1,7.45,5.77Z" transform="translate(-0.25)"/><path class="cls-1" d="M267,499.17c-2.68,4.4-4.06,5.24-4.29,6.29l-.38-.11c-7.23-9.85-16.47-5.76-17-5.5,4.92-2.64,8-8,8.18-8.3A48.27,48.27,0,0,0,267,499.17Z" transform="translate(-0.25)"/><polygon points="630.71 304 630.71 313.3 606.92 313.3 299.18 313.3 282.44 313.3 282.44 304 630.71 304"/><path d="M584.44,220.53l-43.72,77.55h-139V294h15.44a15,15,0,0,0,11.11-4.92H540.51L579,220.53Z" transform="translate(-0.25)"/><polygon class="cls-1" points="578.72 220.53 540.26 289.09 465.75 289.09 504.21 220.53 578.14 220.53 578.72 220.53"/><path class="cls-2" d="M401.74,294v4.07H328.16c-29.18,0-29.82-.64-66.82-37.64s-29.18-60.05-3-65.13c0,0,14.62,23.91,27.19,44,1.58,2.53,3.12,5,4.6,7.35,2.64,4.2,5.07,8,7.11,11.2,12.27,19,14.81,19.6,54.14,19.6h50.32V294Z" transform="translate(-0.25)"/><path class="cls-3" d="M358.82,566.31c.79,3.33-3.65,7.61-7.77,9-2.76,1-4.45.77-8.11-.11l-4.08-14.75c8.2,4,17.58,2.49,17.58,2.49S358,563,358.82,566.31Z" transform="translate(-0.25)"/><path class="cls-1" d="M320,445.83a91.29,91.29,0,0,1-13.81-7.89q-.78-.53-1.53-1.08l-14.57-52.61h0a104.23,104.23,0,0,0,16.53-3.51l.2.66s9.72,8.89,20,18c5.24,4.67,10.62,9.4,14.91,13.05,12.69,10.79,17.76,14,3.81,48.22-11.43,28-14.7,51.82-15.19,68.92l-15.62-56.44C316.65,462.81,318.51,453.14,320,445.83Z" transform="translate(-0.25)"/><path class="cls-3" d="M338.86,560.49l4.08,14.75c-1.82-.45-4.12-1.06-7.28-1.8-6.93-1.62-23.39,1.91-31.19,1.91-2.9,0-4.6-.49-4.17-1.91.68-2.26,1.86-9,3-16h0c16.78,2.36,27.05-4.61,27.05-4.61A19.67,19.67,0,0,0,338.86,560.49Z" transform="translate(-0.25)"/><path class="cls-1" d="M299.43,337.31c21.91-9,77.08-25.42,27.35,62.11-10.26-9.14-20-18-20-18l-.2-.66c16.89-5.18,20.18-12.45,20.18-12.45h-13a238.26,238.26,0,0,1-22-27.54C292.81,340.21,295.62,338.87,299.43,337.31Z" transform="translate(-0.25)"/><path d="M313.78,368.28h13s-3.29,7.27-20.18,12.45a104.23,104.23,0,0,1-16.53,3.51,188.74,188.74,0,0,1-25.77,1.59A201.35,201.35,0,0,1,238,384.24c-32.93-4.31-42.19-16-42.19-16h118Z" transform="translate(-0.25)"/><path class="cls-1" d="M324.05,538.24l-.12.47s-1.43,1.11,6.4,14.12c0,0-10.27,7-27.05,4.61.12-.81.25-1.63.38-2.44,1.31-8.36,2.44-16.29,2.44-16.29A40,40,0,0,1,324.05,538.24Z" transform="translate(-0.25)"/><path class="cls-4" d="M325.2,192.67c0,17-12.69,16-12.69,29.66a52.47,52.47,0,0,0,6.42,24.37H290.17c-1.48-2.35-3-4.82-4.6-7.35l.06,0c32.36-31.5.45-53.94-20.7-77.62-1.34-1.5-2.53-3-3.59-4.38-15.6-20.9-1.72-32.28-1.72-32.28,6.2,3.89,14.11,5.69,20.22-1.51,8.88-10.46,0-33,0-33L291.26,89s-11.6-13.68-14.79-30C282,81.59,315.68,83.79,315.68,104c0,22-21.09,20.14-21.09,46S325.2,175.7,325.2,192.67Z" transform="translate(-0.25)"/><path class="cls-5" d="M291.74,340.74a238.26,238.26,0,0,0,22,27.54H228c-28.17-28.17-40.95-68-42.1-107.42s9.36-78.44,27.77-104.88c0,0,21.65,27.36,47.69,1.33,1.06,1.42,2.25,2.88,3.59,4.38,21.15,23.68,53.06,46.12,20.7,77.62l-.06,0c-12.57-20.13-27.19-44-27.19-44-26.22,5.08-34,28.13,3,65.13C261.34,290.16,277.4,320,291.74,340.74Z" transform="translate(-0.25)"/><path class="cls-1" d="M253.48,491.55c-1.29-1-2-1.68-2-1.68,3.54-4.86,9.61-20.09,14.94-37.09,4.93-15.7,9.22-32.93,10.29-44.88a119.21,119.21,0,0,0,28,29l1,3.63c-1.77,7.14-9,28.9-36.27,59.37-.51-.12-1-.26-1.52-.41l-.87-.28A48.27,48.27,0,0,1,253.48,491.55Z" transform="translate(-0.25)"/><path class="cls-1" d="M290.07,384.25l14.57,52.61a119.21,119.21,0,0,1-28-29,123.13,123.13,0,0,1-12.38-22.07,188.74,188.74,0,0,0,25.77-1.59Z" transform="translate(-0.25)"/><path class="cls-1" d="M236,66.86c14-22.71,35.63-23,39.15-22.88a50.77,50.77,0,0,1,.49,7c0,.61,0,1.22,0,1.83a0,0,0,0,0,0,0,26.57,26.57,0,0,0,.77,6.1c3.19,16.31,14.79,30,14.79,30l-11.42,1.59s8.88,22.52,0,33c-6.11,7.2-14,5.4-20.22,1.51,0,0-13.88,11.38,1.72,32.28-26,26-47.69-1.33-47.69-1.33,36.79-52.86,12-61.32,12-74A11,11,0,1,1,235.8,66.72Z" transform="translate(-0.25)"/><path d="M275.17,44c-3.52-.11-25.16.17-39.15,22.88l-.22-.14A11,11,0,1,0,225.66,82c0,12.66,24.78,21.12-12,74-18.41,26.44-28.92,65.44-27.77,104.88l-.69,0s-19.85,10.79-38.88,0,7-37.44,7-55.84-29.81-17.13-29.81-45,35.52-35.53,50.11-50.12S169.66,72.47,169.66,51c0-27.61,28.39-50,56-50A50,50,0,0,1,275.17,44Z" transform="translate(-0.25)"/><path class="cls-3" d="M264.83,511.8a17,17,0,0,1,1.37,6.09,14.56,14.56,0,0,1-2.45,7.61c-1.68,2.79-1.78,5.54.93,16.07,2.51,9.73-1.24,14.86-2.3,16.07,4-4.72-1.85-16.48-2.52-21.89-.85-6.76,5.71-16.28,2.11-23.26s-15.35-10-19.87-7a9.19,9.19,0,0,0-4.11,7.65c-.77-4.88,2.67-10.86,7.28-13.3h0c.54-.26,9.78-4.35,17,5.5l.38.11C262.47,506.42,263.22,507.55,264.83,511.8Z" transform="translate(-0.25)"/><path d="M238,513.16a9.19,9.19,0,0,1,4.11-7.65c4.52-3,16.28,0,19.87,7s-3,16.5-2.11,23.26c.67,5.41,6.48,17.17,2.52,21.89l-.05.06c-1,1.15-2.6,1.87-5,1.95-12.26.42-7.75-18.51-9.94-29.4-.92-4.59-3.8-6.13-7.19-10.57A10.6,10.6,0,0,1,238,513.16Z" transform="translate(-0.25)"/><path class="cls-6" d="M225.66,82A11,11,0,1,1,235.8,66.72" transform="translate(-0.25)"/><path class="cls-6" d="M235.91,67l.11-.17c14-22.71,35.63-23,39.15-22.88l.49,0" transform="translate(-0.25)"/><path class="cls-6" d="M275.7,52.86a42.74,42.74,0,0,0,.77,6.1c3.19,16.31,14.79,30,14.79,30l-11.42,1.59s8.88,22.52,0,33c-6.11,7.2-14,5.4-20.22,1.51a34.22,34.22,0,0,1-7.06-6c-5.71-6.34-11.73-6.66-11.73-6.66" transform="translate(-0.25)"/><path class="cls-6" d="M185.19,260.88s-19.85,10.79-38.88,0,7-37.44,7-55.84-29.81-17.13-29.81-45,35.52-35.53,50.11-50.12S169.66,72.47,169.66,51c0-27.61,28.39-50,56-50a50,50,0,0,1,49.51,43,50.77,50.77,0,0,1,.49,7c0,.61,0,1.22,0,1.83" transform="translate(-0.25)"/><path class="cls-6" d="M290.17,246.7h28.76a52.47,52.47,0,0,1-6.42-24.37c0-13.64,12.69-12.69,12.69-29.66S294.59,175.86,294.59,150s21.09-23.95,21.09-46c0-20.23-33.65-22.43-39.21-45.06a26.57,26.57,0,0,1-.77-6.1,0,0,0,0,1,0,0c0-.17,0-.34,0-.51" transform="translate(-0.25)"/><path class="cls-6" d="M225.66,82c0,12.66,24.78,21.12-12,74-18.41,26.44-28.92,65.44-27.77,104.88s13.93,79.25,42.1,107.42" transform="translate(-0.25)"/><path class="cls-6" d="M259.62,125s-13.88,11.38,1.72,32.28c1.06,1.42,2.25,2.88,3.59,4.38,21.15,23.68,53.06,46.12,20.7,77.62" transform="translate(-0.25)"/><path class="cls-6" d="M401.74,298.08H328.16c-29.18,0-29.82-.64-66.82-37.64s-29.18-60.05-3-65.13c0,0,14.62,23.91,27.19,44,1.58,2.53,3.12,5,4.6,7.35,2.64,4.2,5.07,8,7.11,11.2,12.27,19,14.81,19.6,54.14,19.6h50.32v20.58Z" transform="translate(-0.25)"/><path class="cls-6" d="M313.78,368.28a238.26,238.26,0,0,1-22-27.54c-14.34-20.73-30.4-50.58-30.4-80.3" transform="translate(-0.25)"/><path class="cls-6" d="M213.65,156s21.65,27.36,47.69,1.33" transform="translate(-0.25)"/><path class="cls-6" d="M401.74,294h15.44a15,15,0,0,0,11.11-4.92,14.58,14.58,0,0,0,1.46-1.86l5.57-8.49a5,5,0,0,1,.95-1.08,5.16,5.16,0,0,1,7.4.73l4,5.13a1.2,1.2,0,0,0,.9.48,1.27,1.27,0,0,0,1.34-1.59l-2.7-10.54a7.69,7.69,0,0,0-7.45-5.77H429a11,11,0,0,0-9.25,5.06l-2,3.07a12.62,12.62,0,0,1-10.64,5.82h-5.38" transform="translate(-0.25)"/><path class="cls-6" d="M439.31,277.22l7,8.56a1.22,1.22,0,0,0,1,.5,1.28,1.28,0,0,0,1.25-1.61" transform="translate(-0.25)"/><path class="cls-6" d="M436.34,277.75l8.79,10.84a1.22,1.22,0,0,0,1,.5,1.28,1.28,0,0,0,1.25-1.6" transform="translate(-0.25)"/><path class="cls-6" d="M291.26,341l.48-.23c1.07-.53,3.88-1.87,7.69-3.43,21.91-9,77.08-25.42,27.35,62.11" transform="translate(-0.25)"/><path class="cls-6" d="M306.8,381.39s9.72,8.89,20,18c5.24,4.67,10.62,9.4,14.91,13.05,12.69,10.79,17.76,14,3.81,48.22-11.43,28-14.7,51.82-15.19,68.92-.11,3.8-.09,7.26,0,10.37" transform="translate(-0.25)"/><path class="cls-6" d="M326.78,448.63q-3.51-1.28-6.8-2.8a91.29,91.29,0,0,1-13.81-7.89q-.78-.53-1.53-1.08a119.21,119.21,0,0,1-28-29,123.13,123.13,0,0,1-12.38-22.07" transform="translate(-0.25)"/><path class="cls-6" d="M302.36,540s6.57-36.39,12.33-66.81c2-10.36,3.82-20,5.29-27.34,0-.12.06-.25.08-.37" transform="translate(-0.25)"/><path class="cls-6" d="M302.36,540a33,33,0,0,1,3.74-1.27,40,40,0,0,1,17.95-.47,37.07,37.07,0,0,1,6.28,1.74" transform="translate(-0.25)"/><path class="cls-6" d="M303.27,557.44c-1.11,7-2.29,13.74-3,16-.43,1.42,1.27,1.91,4.17,1.91,7.8,0,24.26-3.53,31.19-1.91,3.16.74,5.46,1.35,7.28,1.8,3.66.88,5.35,1.07,8.11.11,4.12-1.43,8.56-5.71,7.77-9s-2.38-3.33-2.38-3.33-9.38,1.46-17.58-2.49a19.67,19.67,0,0,1-8.53-7.66c-7.83-13-6.4-14.12-6.4-14.12" transform="translate(-0.25)"/><path class="cls-6" d="M306.1,538.71S305,546.64,303.66,555c-.13.81-.26,1.63-.38,2.44" transform="translate(-0.25)"/><path class="cls-6" d="M303.27,557.44h0c16.78,2.36,27.05-4.61,27.05-4.61" transform="translate(-0.25)"/><path class="cls-6" d="M276.68,407.9c-1.07,12-5.36,29.18-10.29,44.88-5.33,17-11.4,32.23-14.94,37.09,0,0,.74.67,2,1.68a48.27,48.27,0,0,0,13.5,7.62l.87.28c.5.15,1,.29,1.52.41" transform="translate(-0.25)"/><path class="cls-6" d="M306.16,438a25.3,25.3,0,0,1-.52,2.54c-1.77,7.14-9,28.9-36.27,59.37" transform="translate(-0.25)"/><path class="cls-6" d="M262.38,557.64c4-4.72-1.85-16.48-2.52-21.89-.85-6.76,5.71-16.28,2.11-23.26s-15.35-10-19.87-7a9.19,9.19,0,0,0-4.11,7.65,10.6,10.6,0,0,0,2.2,6.52c3.39,4.44,6.27,6,7.19,10.57,2.19,10.89-2.32,29.82,9.94,29.4,2.41-.08,4-.8,5-1.95" transform="translate(-0.25)"/><path class="cls-6" d="M262.11,557.93a2.69,2.69,0,0,0,.22-.23l.05-.06c1.06-1.21,4.81-6.34,2.3-16.07-2.71-10.53-2.61-13.28-.93-16.07a14.56,14.56,0,0,0,2.45-7.61,17,17,0,0,0-1.37-6.09c-1.61-4.25-2.36-5.38-2.14-6.34s1.61-1.89,4.29-6.29" transform="translate(-0.25)"/><path class="cls-6" d="M245.27,499.86c-4.61,2.44-8.05,8.42-7.28,13.3a7.91,7.91,0,0,0,.37,1.45" transform="translate(-0.25)"/><path class="cls-6" d="M253.48,491.54h0c-.17.29-3.26,5.66-8.18,8.3" transform="translate(-0.25)"/><path class="cls-6" d="M245.27,499.86h0c.54-.26,9.78-4.35,17,5.5" transform="translate(-0.25)"/><path class="cls-6" d="M238,384.24c-32.93-4.31-42.19-16-42.19-16h131s-3.29,7.27-20.18,12.45a104.23,104.23,0,0,1-16.53,3.51,188.74,188.74,0,0,1-25.77,1.59A201.35,201.35,0,0,1,238,384.24Z" transform="translate(-0.25)"/><line class="cls-6" x1="237.73" y1="384.25" x2="184.87" y2="577.57"/><polyline class="cls-6" points="267.6 499.45 268.18 517.82 270.05 577.57"/><line class="cls-6" x1="264.05" y1="385.83" x2="266.14" y2="452.78"/><polyline class="cls-6" points="343.34 577.57 342.69 575.24 338.61 560.49 330.06 529.61 314.44 473.17 305.39 440.49 304.39 436.86 289.82 384.25"/><line class="cls-6" x1="606.92" y1="313.3" x2="606.92" y2="577.57"/><polygon class="cls-6" points="606.92 313.3 630.71 313.3 630.71 304 282.44 304 282.44 313.3 299.18 313.3 606.92 313.3"/><polyline class="cls-6" points="428.04 289.09 445.87 289.09 465.75 289.09 540.26 289.09 578.72 220.53"/><polyline class="cls-6" points="534.51 298.08 540.47 298.08 584.19 220.53 578.72 220.53 578.14 220.53 504.21 220.53"/><line class="cls-6" x1="465.75" y1="289.09" x2="504.21" y2="220.53"/><polyline class="cls-6" points="401.49 298.08 534.42 298.08 534.51 298.08"/><polyline class="cls-6" points="1920 577.57 606.92 577.57 343.34 577.57 304.22 577.57 270.05 577.57 184.87 577.57 0 577.57"/><line class="cls-6" x1="299.18" y1="313.3" x2="299.18" y2="337.31"/></g></g></svg>