<svg xmlns="http://www.w3.org/2000/svg" viewBox="0 0 1920.21 607.18"><defs><style>.cls-1{fill:#fff;}.cls-2{fill:#d6f9dd;}.cls-3{fill:#1a1a1a;}.cls-4{fill:#effdf1;}.cls-5{fill:#333;}.cls-6{fill:none;stroke:#000;stroke-miterlimit:10;stroke-width:2px;}</style></defs><title>laptoper_1</title><g id="Layer_2" data-name="Layer 2"><g id="computer"><path class="cls-1" d="M1765,322.84h45c-13.09,56.53-40,72-40,72H1619.78a13.42,13.42,0,0,0-13.32,15.05l17.82,146a18.63,18.63,0,0,0-3.3-1c-8.49-1.78-16.26,2.89-19.9,5.59a26.29,26.29,0,0,0-2.17,1.78l-1.45-4.92-58-197.32a29,29,0,0,1,27.78-37.12H1765Z" transform="translate(-0.25)"/><path class="cls-1" d="M1636.5,306.24l-3.48-2.55-3.59-2.54c-6.26-3.59-13.37-3.3-16.85-3.3h-16.89a2.71,2.71,0,1,1,0-5.41h4.88a7,7,0,0,0,7-7,6.83,6.83,0,0,0-1.39-4.16,6.94,6.94,0,0,0-5.58-2.8h-17.39a5,5,0,0,0-3.65,1.57l-3.67,3.91a8,8,0,0,1-5.79,2.52l-3.24,0,11.4-11.4a5,5,0,0,1,3.53-1.46h24.29a21.55,21.55,0,0,1,13,4.35l1.06.8a17.58,17.58,0,0,0,10.56,3.53h3.93C1634.39,288.41,1634.52,297.79,1636.5,306.24Z" transform="translate(-0.25)"/><path class="cls-2" d="M1636.5,306.24c-2-8.45-2.11-17.83-1.89-23.9.13-3.95.4-6.5.4-6.5h74v-159c32.67,16.86,108,72.85,108,138,0,27.46-2.78,49.85-7,68h-45c-9-15-13-89-13-89v89H1646a17.16,17.16,0,0,1-4.53-4.54h20.13a5.4,5.4,0,1,0,0-10.8h-24.8C1636.7,307.08,1636.6,306.66,1636.5,306.24Z" transform="translate(-0.25)"/><path class="cls-3" d="M1765,322.84h-13v-89S1756,307.84,1765,322.84Z" transform="translate(-0.25)"/><path class="cls-4" d="M1634.11,206.43a62,62,0,0,0,9.92-11.35c2.48-3.54,4-6.24,4-6.24,14,12,61,39.5,61,39.5v47.5h-25.73s-36.27-57-56.27-65A23.7,23.7,0,0,0,1634.11,206.43Z" transform="translate(-0.25)"/><path class="cls-1" d="M1709,116.82v58c-6-19-52.2-85.15-62-44-10,42-50-19-50-19l-11,9c-5.77-20.19-18.94-42.24-19.94-43.9a16.64,16.64,0,0,0,6.94-6.1c10-15,10-20,10-20s7,3,10,7,7,0,7,0c-5-1-10-8-11-11s2-11,15-7,6,12,11,20,24,2,24,2,36,39,66,53c1.25.58,2.58,1.24,4,2Z" transform="translate(-0.25)"/><path class="cls-3" d="M1665.43,309.08a5.4,5.4,0,0,1-3.82,9.22H1550.84l-77.48-118.44h13.81L1556,305.06a5.42,5.42,0,0,0,4.52,2.44h101.1A5.36,5.36,0,0,1,1665.43,309.08Z" transform="translate(-0.25)"/><path class="cls-3" d="M1571.54,26.78C1585.09,10.92,1614.33-16,1619,15.84c5,34,23,30,27,35s-7,11-7,11-19,6-24-2,2-16-11-20-16,4-15,7,6,10,11,11c0,0-4,4-7,0s-10-7-10-7,0,5-10,20a16.64,16.64,0,0,1-6.94,6.1c-10.1,4.65-22.67-2.59-23-2.77h0c-4.25,4.21-10.55,7.06-16.09-.33-8.92-11.89,2.79-24.77,12.73-23.05C1542.35,40.2,1551.55,24,1571.54,26.78Z" transform="translate(-0.25)"/><path class="cls-1" d="M1617,186.87a7,7,0,0,0-1.31-2.75h0a7.06,7.06,0,0,0-5.62-2.75h-13.46c-9.61,0-12.63-5.51-12.63-5.51h19.41c16.82,0,21.63,6.41,28.84,13.61,6.92,6.93,11.44,5.71,11.78,5.61a62,62,0,0,1-9.92,11.35c-5-3.86-12.57-5.34-15.3-5.34H1603.1a2.72,2.72,0,0,1,0-5.44h7a7.13,7.13,0,0,0,7.14-7.14A6.82,6.82,0,0,0,1617,186.87Z" transform="translate(-0.25)"/><path class="cls-3" d="M1630.41,587.15c4.66,11.63,3.6,19-6.13,19H1574.8c-4.23,0-3.38-2.54-3.38-5.08,0-1.42.4-1.85,2.68-2.47,1.77-.49,4.68-1.09,9.41-2.39,10.83-3,23-9.94,23.22-15.44,0,0,13.81.52,20-3.44C1627.92,580.71,1629.17,584.05,1630.41,587.15Z" transform="translate(-0.25)"/><path class="cls-1" d="M1621,554.84c-.09,4.06,2.53,13.3,5.77,22.52-6.21,4-20,3.44-20,3.44a18.39,18.39,0,0,0-.49-4.15,127.26,127.26,0,0,0-5.16-16.23c3.64-2.7,11.41-7.37,19.9-5.59Z" transform="translate(-0.25)"/><path class="cls-5" d="M1606.24,576.65a18.39,18.39,0,0,1,.49,4.15c-.21,5.5-12.39,12.48-23.22,15.44-4.73,1.3-7.64,1.9-9.41,2.39l-.58-2.12,1-.27c10.83-3,23-9.94,23.22-15.44a15.48,15.48,0,0,0-.26-3A36.48,36.48,0,0,0,1606.24,576.65Z" transform="translate(-0.25)"/><path class="cls-1" d="M1601.08,560.42a127.26,127.26,0,0,1,5.16,16.23,36.48,36.48,0,0,1-8.77,1.18c-1.13-6.59-5.39-17.41-5.39-17.41l-.92-.12a12.1,12.1,0,0,1,6.3-3l1.45,4.92A26.29,26.29,0,0,1,1601.08,560.42Z" transform="translate(-0.25)"/><path class="cls-1" d="M1539.41,360l58,197.32a12.1,12.1,0,0,0-6.3,3,18.77,18.77,0,0,0-2,1.9l-85.62-214.42a18.19,18.19,0,0,1,16.9-24.94h46.73A29,29,0,0,0,1539.41,360Z" transform="translate(-0.25)"/><path class="cls-5" d="M1574.8,606.18h-9c-4.23,0-3.38-2.54-3.38-5.08s1.19-1.94,11.1-4.59l.58,2.12c-2.28.62-2.68,1-2.68,2.47C1571.42,603.64,1570.57,606.18,1574.8,606.18Z" transform="translate(-0.25)"/><path class="cls-5" d="M1473.36,199.86l77.48,118.44h-100.3a5.42,5.42,0,0,1-4.52-2.44l-75.88-116Z" transform="translate(-0.25)"/><path class="cls-6" d="M1597,111.84l-11,9c-5.77-20.19-18.94-42.24-19.94-43.9l-.06-.1" transform="translate(-0.25)"/><path class="cls-6" d="M1709,174.84c-6-19-52.2-85.15-62-44-10,42-50-19-50-19" transform="translate(-0.25)"/><path class="cls-6" d="M1543.1,74.17c-4.25,4.21-10.55,7.06-16.09-.33-8.92-11.89,2.79-24.77,12.73-23.05l.27.05" transform="translate(-0.25)"/><path class="cls-6" d="M1548,66.84c-.38,1.54-2.24,4.7-4.9,7.33" transform="translate(-0.25)"/><path class="cls-6" d="M1539,57.84a20.39,20.39,0,0,1,.73-7.05c2.61-10.59,11.81-26.82,31.8-24l.47.06" transform="translate(-0.25)"/><path class="cls-6" d="M1543.1,74.17h0c.29.18,12.86,7.42,23,2.77a16.64,16.64,0,0,0,6.94-6.1c10-15,10-20,10-20s7,3,10,7,7,0,7,0c-5-1-10-8-11-11s2-11,15-7,6,12,11,20,24,2,24,2,11-6,7-11-22-1-27-35c-4.68-31.84-33.92-4.92-47.47,10.94-.92,1.08-1.77,2.11-2.53,3.06" transform="translate(-0.25)"/><path class="cls-6" d="M1709,116.82c32.67,16.86,108,72.85,108,138,0,27.46-2.78,49.85-7,68-13.09,56.53-40,72-40,72" transform="translate(-0.25)"/><path class="cls-6" d="M1639,61.84s36,39,66,53c1.25.58,2.58,1.24,4,2" transform="translate(-0.25)"/><path class="cls-6" d="M1641.48,318.3a17.16,17.16,0,0,0,4.53,4.54" transform="translate(-0.25)"/><path class="cls-6" d="M1709,116.81h0v159h-74s-.27,2.55-.4,6.5c-.22,6.07-.09,15.45,1.89,23.9.1.42.2.84.31,1.26" transform="translate(-0.25)"/><path class="cls-6" d="M1752,322.84v-89s4,74,13,89" transform="translate(-0.25)"/><path class="cls-6" d="M1627,210.84c20,8,56.27,65,56.27,65" transform="translate(-0.25)"/><path class="cls-6" d="M1709,228.34s-47-27.5-61-39.5c0,0-1.5,2.7-4,6.24a62,62,0,0,1-9.92,11.35,23.7,23.7,0,0,1-7.1,4.41" transform="translate(-0.25)"/><path class="cls-6" d="M1644.05,195.07h0c-.34.1-4.86,1.32-11.78-5.61-7.21-7.2-12-13.61-28.84-13.61H1584" transform="translate(-0.25)"/><path class="cls-6" d="M1584,175.86s3,5.51,12.63,5.51h13.46" transform="translate(-0.25)"/><path class="cls-6" d="M1583.3,178.61s3,5.51,12.63,5.51h19.78" transform="translate(-0.25)"/><path class="cls-6" d="M1582,181.37s3,5.5,12.63,5.5H1617" transform="translate(-0.25)"/><path class="cls-6" d="M1610.09,195.65a7.13,7.13,0,0,0,7.14-7.14,6.82,6.82,0,0,0-.2-1.64,7,7,0,0,0-1.31-2.75h0a7.06,7.06,0,0,0-5.62-2.75" transform="translate(-0.25)"/><path class="cls-6" d="M1603.1,195.65a2.72,2.72,0,0,0,0,5.44" transform="translate(-0.25)"/><path class="cls-6" d="M1603.1,201.09h15.71c2.73,0,10.25,1.48,15.3,5.34l.42.32" transform="translate(-0.25)"/><line class="cls-6" x1="1602.85" y1="195.65" x2="1609.84" y2="195.65"/><path class="cls-6" d="M1600.57,292.43a7,7,0,0,0,7-7,6.83,6.83,0,0,0-1.39-4.16,6.94,6.94,0,0,0-5.58-2.8" transform="translate(-0.25)"/><path class="cls-6" d="M1595.69,292.43a2.71,2.71,0,1,0,0,5.41" transform="translate(-0.25)"/><path class="cls-6" d="M1595.69,297.85h16.89c3.48,0,10.59-.29,16.85,3.3l3.59,2.54,3.48,2.55.09.07" transform="translate(-0.25)"/><line class="cls-6" x1="1595.44" y1="292.43" x2="1600.32" y2="292.43"/><path class="cls-6" d="M1600.57,278.5h-17.39a5,5,0,0,0-3.65,1.57l-3.67,3.91a8,8,0,0,1-5.79,2.52l-3.24,0,11.4-11.4a5,5,0,0,1,3.53-1.46h24.29a21.55,21.55,0,0,1,13,4.35l1.06.8a17.58,17.58,0,0,0,10.56,3.53h3.92" transform="translate(-0.25)"/><path class="cls-6" d="M1606.15,281.3h-21.39a5,5,0,0,0-3.64,1.57l-3.67,3.91a8,8,0,0,1-5.8,2.52l-3.24,0" transform="translate(-0.25)"/><path class="cls-6" d="M1607.31,284.41H1586a5,5,0,0,0-3.64,1.57l-3.67,3.91a8,8,0,0,1-5.8,2.52l-3.24,0" transform="translate(-0.25)"/><path class="cls-6" d="M1810,322.84H1567.19A29,29,0,0,0,1539.41,360l58,197.32,1.45,4.92a26.29,26.29,0,0,1,2.17-1.78c3.64-2.7,11.41-7.37,19.9-5.59a18.63,18.63,0,0,1,3.3,1l-17.82-146a13.42,13.42,0,0,1,13.32-15.05h300.68" transform="translate(-0.25)"/><path class="cls-6" d="M1624.28,606.18c9.73,0,10.79-7.4,6.13-19-1.24-3.1-2.49-6.44-3.66-9.79-3.24-9.22-5.86-18.46-5.77-22.52" transform="translate(-0.25)"/><path class="cls-6" d="M1601.08,560.42a127.26,127.26,0,0,1,5.16,16.23,18.39,18.39,0,0,1,.49,4.15c-.21,5.5-12.39,12.48-23.22,15.44-4.73,1.3-7.64,1.9-9.41,2.39-2.28.62-2.68,1-2.68,2.47,0,2.54-.85,5.08,3.38,5.08" transform="translate(-0.25)"/><path class="cls-6" d="M1606.73,580.8s13.81.52,20-3.44" transform="translate(-0.25)"/><path class="cls-6" d="M1567.19,322.84h-46.73a18.19,18.19,0,0,0-16.9,24.94l85.62,214.42a18.77,18.77,0,0,1,2-1.9,12.1,12.1,0,0,1,6.3-3" transform="translate(-0.25)"/><path class="cls-6" d="M1597.46,577.83h0a36.48,36.48,0,0,0,8.77-1.18" transform="translate(-0.25)"/><path class="cls-6" d="M1565.8,606.18c-4.23,0-3.38-2.54-3.38-5.08s1.19-1.94,11.1-4.59l1-.27c10.83-3,23-9.94,23.22-15.44a15.48,15.48,0,0,0-.26-3c-1.13-6.59-5.39-17.41-5.39-17.41" transform="translate(-0.25)"/><path class="cls-6" d="M1624.28,606.18H.25" transform="translate(-0.25)"/><path class="cls-6" d="M1370.14,199.86l75.88,116a5.42,5.42,0,0,0,4.52,2.44h211.07a5.4,5.4,0,1,0,0-10.8h-101.1a5.42,5.42,0,0,1-4.52-2.44l-68.82-105.2" transform="translate(-0.25)"/><polyline class="cls-6" points="1486.92 199.86 1473.11 199.86 1369.89 199.86"/><line class="cls-6" x1="1473.11" y1="199.86" x2="1550.59" y2="318.3"/></g></g></svg>