<svg xmlns="http://www.w3.org/2000/svg" viewBox="0 0 1777.49 504.31"><defs><style>.cls-1{fill:none;stroke:#000;stroke-miterlimit:10;stroke-width:2px;}.cls-2{fill:#fff;}.cls-3{fill:gray;}.cls-4{fill:#666;}</style></defs><title>Asset 10</title><g id="Layer_2" data-name="Layer 2"><g id="Layer_2-2" data-name="Layer 2"><path class="cls-1" d="M1450.29,337.51,1270.8,396.09c-158.31,49.86-204.43,87.26-310.38-49.86s-173.26-67.31-352.76,21.19S166.41,691.51,403.24,209.12.62,234.05.62,234.05"/></g><g id="Layer_3" data-name="Layer 3"><polygon class="cls-2" points="1774.83 212.06 1645.24 336.86 1604.81 309.09 1580.93 292.7 1710.52 236.06 1544.45 267.74 1489.73 230.3 1774.83 212.06"/><polygon class="cls-3" points="1710.52 236.06 1580.93 292.7 1580.44 292.86 1555.97 344.54 1544.45 267.74 1710.52 236.06"/><polygon class="cls-4" points="1604.81 309.09 1555.97 344.54 1580.44 292.86 1580.93 292.7 1604.81 309.09"/><polyline class="cls-1" points="1604.81 309.09 1555.97 344.54 1544.45 267.74"/><polygon class="cls-1" points="1580.93 292.7 1710.52 236.06 1544.45 267.74 1489.73 230.3 1774.83 212.06 1645.24 336.86 1604.81 309.09 1580.93 292.7"/><line class="cls-1" x1="1580.44" y1="292.86" x2="1555.97" y2="344.53"/></g></g></svg>